# AST/ASF file generated using VICON BodyLanguage
# -----------------------------------------------
:version 1.10
:name VICON
:units
  mass 1.0
  length 0.45
  angle deg
:documentation
   .ast/.asf automatically generated from VICON data using
   VICON BodyBuilder and BodyLanguage model FoxedUp or BRILLIANT.MOD
:root
   order TX TY TZ RX RY RZ
   axis XYZ
   position 0 0 0  
   orientation 0 0 0 
:bonedata
  begin
     id 1 
     name lhipjoint
     direction 0.623529 -0.717805 0.309788 
     length 2.23224 
     axis 0 0 0  XYZ
  end
  begin
     id 2 
     name lfemur
     direction 0.34202 -0.939693 0  
     length 7.11402  
     axis 0 0 20  XYZ
    dof rx ry rz
    limits (-160.0 20.0)
           (-70.0 70.0)
           (-60.0 70.0)
  end
  begin
     id 3 
     name ltibia
     direction 0.34202 -0.939693 0   
     length 6.78496   
     axis 0 0 20   XYZ
    dof rx
    limits (-10.0 170.0)
  end
  begin
     id 4 
     name lfoot
     direction 0.125078 -0.343648 0.930732   
     length 1.84054   
     axis -90 7.62852e-016 20   XYZ
    dof rx rz
    limits (-45.0 90.0)
           (-70.0 20.0)
  end
  begin
     id 5 
     name ltoes
     direction 1.53565e-011 -4.21893e-011 1   
     length 0.916474   
     axis -90 7.62852e-016 20   XYZ
    dof rx
    limits (-90.0 20.0)
  end
  begin
     id 6 
     name rhipjoint
     direction -0.564688 -0.757748 0.327026   
     length 2.11457  
     axis 0 0 0  XYZ 
  end
  begin
     id 7 
     name rfemur
     direction -0.34202 -0.939693 0   
     length 7.14609   
     axis 0 0 -20   XYZ
    dof rx ry rz
    limits (-160.0 20.0)
           (-70.0 70.0)
           (-70.0 60.0)
  end
  begin
     id 8 
     name rtibia
     direction -0.34202 -0.939693 0   
     length 6.78101   
     axis 0 0 -20   XYZ
    dof rx
    limits (-10.0 170.0)
 end
 begin
     id 9 
     name rfoot
     direction -0.0992671 -0.272734 0.956955   
     length 1.96168  
     axis -90 -7.62852e-016 -20   XYZ
    dof rx rz
    limits (-45.0 90.0)
           (-20.0 70.0)
  end
  begin
     id 10 
     name rtoes
     direction -1.5356e-011 -4.21891e-011 1   
     length 0.982933   
     axis -90 -7.62852e-016 -20   XYZ
    dof rx
    limits (-90.0 20.0)
  end
  begin
     id 11 
     name lowerback
     direction -0.00596953 0.998668 0.0512524   
     length 1.87557   
     axis 0 0 0   XYZ
    dof rx ry rz
    limits (-20.0 45.0)
           (-30.0 30.0)
           (-30.0 30.0)
  end
  begin
     id 12 
     name upperback
     direction 0.00584879 0.999652 0.0257308   
     length 1.87883   
     axis 0 0 0   XYZ
    dof rx ry rz
    limits (-20.0 45.0)
           (-30.0 30.0)
           (-30.0 30.0)
  end
  begin
     id 13 
     name thorax
     direction 0.010104 0.999947 0.00178881   
     length 1.87779   
     axis 0 0 0   XYZ
    dof rx ry rz
    limits (-20.0 45.0)
           (-30.0 30.0)
           (-30.0 30.0)
  end
  begin
     id 14 
     name lowerneck
     direction 0.0120771 0.995934 -0.0892773   
     length 1.40897   
     axis 0 0 0   XYZ
    dof rx ry rz
    limits (-20.0 45.0)
           (-30.0 30.0)
           (-30.0 30.0)
  end
  begin
     id 15 
     name upperneck
     direction -0.030568 0.999465 -0.0116366   
     length 1.38661   
     axis 0 0 0   XYZ
    dof rx ry rz
    limits (-20.0 45.0)
           (-30.0 30.0)
           (-30.0 30.0)
  end
  begin
     id 16
     name head
     direction -0.0170715 0.999854 -0.00104426  
     length 1.47052  
     axis 0 0 0   XYZ
    dof rx ry rz
    limits (-20.0 45.0)
           (-30.0 30.0)
           (-30.0 30.0)
  end
  begin
     id 17 
     name lclavicle
     direction 0.977763 0.206143 0.038532  
     length 3.02424  
     axis 0 0 0   XYZ
    dof ry rz
    limits (-20.0 10.0)
           (0.0 20.0)
  end
  begin
     id 18 
     name lhumerus
     direction 1 -4.48965e-011 -2.62654e-027   
     length 4.68382   
     axis 180 -30 -90   XYZ
    dof rx ry rz
    limits (-60.0 90.0)
           (-90.0 90.0)
           (-90.0 90.0)
  end
  begin
     id 19
     name lradius
     direction 1 -4.48973e-011 -1.54954e-027   
     length 2.98124   
     axis 180 -30 -90   XYZ
    dof rx
    limits (-10.0 170.0)
  end
  begin
     id 20
     name lwrist
     direction 1 -4.48959e-011 7.20928e-028   
     length 1.49062   
     axis -5.52449e-016 90 90   XYZ
    dof ry
    limits (-180.0 0.0)
 end
  begin
     id 21 
     name lhand
     direction 1 -4.48971e-011 1.44186e-027   
     length 0.707595   
     axis -9.20027e-016 90 90   XYZ
    dof rx rz
    limits (-90.0 90.0)
           (-45.0 45.0)
  end
  begin
     id 22 
     name lfingers
     direction 1 -4.48985e-011 2.88371e-027   
     length 0.570481   
     axis -1.84005e-015 90 90   XYZ
    dof rx
    limits (0.0 90.0)
  end
  begin
     id 23
     name lthumb
     direction 0.707107 -6.34929e-011 0.707107   
     length 0.819101   
     axis -90 45 2.85299e-015   XYZ
    dof rx rz
    limits (-45.0 45.0)
           (-45.0 45.0)
  end
  begin
     id 24 
     name rclavicle
     direction -0.958661 0.284411 -0.00895327   
     length 3.11921  
     axis 0 0 0   XYZ 
    dof ry rz
    limits (-10.0 20.0)
           (-20.0 0.0)
  end
  begin
     id 25 
     name rhumerus
     direction -1 -4.48963e-011 -4.22193e-027  
     length 4.75876   
     axis 180 30 90   XYZ
    dof rx ry rz
    limits (-90.0 60.0)
           (-90.0 90.0)
           (-90.0 90.0)
  end
  begin
     id 26 
     name rradius
     direction -1 -4.48968e-011 -1.07616e-027   
     length 2.93293   
     axis 180 30 90   XYZ
    dof rx
    limits (-10.0 170.0)
  end
  begin
     id 27 
     name rwrist
     direction -1 -4.48965e-011 7.20928e-028   
     length 1.46647   
     axis -5.52449e-016 -90 -90   XYZ
    dof ry
    limits (-180.0 0.0)
  end
  begin
     id 28
     name rhand
     direction -1 -4.48971e-011 1.44186e-027   
     length 0.831748   
     axis -9.20027e-016 -90 -90   XYZ
    dof rx rz
    limits (-90.0 90.0)
           (-45.0 45.0)
  end
  begin
     id 29
     name rfingers
     direction -1 -4.48961e-011 2.88371e-027   
     length 0.670577   
     axis -1.84005e-015 -90 -90   XYZ
    dof rx
    limits (0.0 90.0)
  end
  begin
     id 30
     name rthumb
     direction -0.707107 -6.34929e-011 0.707107   
     length 0.962818   
     axis -90 -45 -2.85299e-015   XYZ
    dof rx rz
    limits (-45.0 45.0)
           (-45.0 45.0)
  end
:hierarchy
  begin
    root lhipjoint rhipjoint lowerback
    lhipjoint lfemur
    lfemur ltibia
    ltibia lfoot
    lfoot ltoes
    rhipjoint rfemur
    rfemur rtibia
    rtibia rfoot
    rfoot rtoes
    lowerback upperback
    upperback thorax
    thorax lowerneck lclavicle rclavicle
    lowerneck upperneck
    upperneck head
    lclavicle lhumerus
    lhumerus lradius
    lradius lwrist
    lwrist lhand lthumb
    lhand lfingers
    rclavicle rhumerus
    rhumerus rradius
    rradius rwrist
    rwrist rhand rthumb
    rhand rfingers
  end

#!OML:ASF E:\id_vita\Project 1\Capture day 1\Session 1\Female.ASF
:FULLY-SPECIFIED
:DEGREES
438
root 1.62195 16.6085 -0.333359 275.766 -92.675 -263.47
lowerback -15.0109 2.17762 -1.19913
upperback -3.69774 2.87541 0.304996
thorax 4.40835 1.33706 1.52164
lowerneck 10.3112 -5.21169 -9.81726
upperneck -7.82497 -7.3204 12.4214
head -3.15679 -4.02326 5.79406
rclavicle -1.57475e-014 -8.74653e-015
rhumerus -20.0057 -18.1463 -85.5595
rradius 21.5916
rwrist 16.2904
rhand -16.7485 7.11538
rfingers 7.12502
rthumb 9.47799 -22.6515
lclavicle -1.57475e-014 -8.74653e-015
lhumerus -71.9042 44.7202 32.0933
lradius 13.0148
lwrist -68.1407
lhand -3.73452 23.7785
lfingers 7.12502
lthumb 22.0089 52.5463
rfemur -9.2284 6.17247 29.1663
rtibia 20.6859
rfoot -15.3061 -2.1306
rtoes -9.3635
lfemur -40.4471 -3.81353 -15.9776
ltibia 34.4166
lfoot -12.3726 7.8622
ltoes -8.56673
439
root 1.4765 16.6044 -0.327962 285.063 -92.6856 -272.657
lowerback -15.0823 2.25376 -1.02573
upperback -3.67714 2.95278 0.246182
thorax 4.47847 1.37536 1.38011
lowerneck 10.7205 -5.0212 -9.94382
upperneck -8.36869 -7.06958 12.5184
head -3.40723 -3.91276 5.87353
rclavicle -8.03835e-015 1.07344e-014
rhumerus -19.3832 -16.6283 -86.3899
rradius 22.3499
rwrist 15.0057
rhand -16.2758 7.29188
rfingers 7.12502
rthumb 9.93408 -22.4537
lclavicle -8.03835e-015 1.07344e-014
lhumerus -72.3049 44.5594 31.7452
lradius 13.0591
lwrist -68.0405
lhand -3.61801 23.546
lfingers 7.12502
lthumb 22.1207 52.3006
rfemur -8.42132 6.08776 29.1675
rtibia 19.9369
rfoot -15.3735 -1.7598
rtoes -8.31642
lfemur -40.5625 -4.78485 -15.2601
ltibia 31.7413
lfoot -12.2681 8.18475
ltoes -7.33002
440
root 1.33965 16.5989 -0.319619 291.726 -92.8042 -279.21
lowerback -14.9755 2.30081 -0.771095
upperback -3.71404 2.97546 0.216291
thorax 4.39624 1.3892 1.20399
lowerneck 10.7431 -4.97641 -10.0357
upperneck -8.51817 -7.01943 12.4487
head -3.46067 -3.88143 5.87101
rclavicle -3.13769e-014 -6.75868e-015
rhumerus -18.8645 -15.1004 -87.1477
rradius 23.1311
rwrist 13.8512
rhand -16.0946 7.52369
rfingers 7.12502
rthumb 10.1089 -22.2135
lclavicle -3.13769e-014 -6.75868e-015
lhumerus -71.7753 43.9338 32.8789
lradius 13.219
lwrist -66.6149
lhand -3.30333 23.8645
lfingers 7.12502
lthumb 22.4228 52.5829
rfemur -7.6447 5.70165 29.208
rtibia 19.2341
rfoot -15.523 -1.26323
rtoes -8.33095
lfemur -40.731 -5.87016 -14.4436
ltibia 29.0729
lfoot -12.0316 8.54451
ltoes -6.66641
441
root 1.19837 16.5852 -0.316943 301.434 -92.7792 -288.817
lowerback -14.9432 2.3917 -0.864395
upperback -3.72547 3.11457 0.108568
thorax 4.36446 1.45737 1.167
lowerneck 10.6031 -5.02332 -10.058
upperneck -8.57291 -7.07661 12.3856
head -3.44847 -3.90177 5.85247
rclavicle -4.57888e-014 1.27222e-014
rhumerus -18.3313 -14.0392 -87.814
rradius 23.731
rwrist 12.9541
rhand -15.9108 7.32931
rfingers 7.12502
rthumb 10.2862 -22.3992
lclavicle -4.57888e-014 1.27222e-014
lhumerus -72.0632 43.6222 32.6712
lradius 13.2047
lwrist -66.7048
lhand -3.42124 23.7025
lfingers 7.12502
lthumb 22.3096 52.4346
rfemur -6.80643 5.87743 29.0486
rtibia 18.514
rfoot -15.5017 -1.25577
rtoes -8.37978
lfemur -40.851 -6.95288 -13.7416
ltibia 26.4949
lfoot -11.9273 9.11433
ltoes -7.83664
442
root 1.05125 16.5681 -0.316093 314.936 -92.964 -302.22
lowerback -15.0855 2.54839 -0.974065
upperback -3.66212 3.34713 -0.0154783
thorax 4.50387 1.5696 1.14952
lowerneck 10.7134 -5.06298 -10.1207
upperneck -8.97826 -7.1144 12.5062
head -3.576 -3.92969 5.92043
rclavicle 1.70147e-014 2.42517e-014
rhumerus -17.6994 -13.1185 -88.5155
rradius 24.2044
rwrist 12.1764
rhand -15.9697 7.29927
rfingers 7.12502
rthumb 10.2294 -22.432
lclavicle 1.70147e-014 2.42517e-014
lhumerus -74.2132 44.0834 29.5437
lradius 12.885
lwrist -69.9228
lhand -4.51149 22.2948
lfingers 7.12502
lthumb 21.2627 51.1485
rfemur -5.95823 6.38261 28.8707
rtibia 17.7999
rfoot -15.4866 -1.3901
rtoes -8.99633
lfemur -40.8669 -8.0718 -12.8585
ltibia 24.0617
lfoot -11.8072 10.3271
ltoes -9.47906
443
root 0.898602 16.554 -0.317293 325.226 -93.3937 -312.291
lowerback -15.4306 2.67866 -1.02763
upperback -3.62115 3.52854 -0.0307016
thorax 4.72694 1.6539 1.21559
lowerneck 10.9636 -4.95042 -10.0904
upperneck -9.42961 -6.96434 12.3304
head -3.77862 -3.85225 5.88179
rclavicle 2.33324e-014 -1.19271e-015
rhumerus -17.1627 -12.0001 -89.0963
rradius 24.8475
rwrist 11.4499
rhand -16.113 7.51701
rfingers 7.12502
rthumb 10.0911 -22.221
lclavicle 2.33324e-014 -1.19271e-015
lhumerus -71.8022 43.0329 33.3084
lradius 13.3278
lwrist -65.6056
lhand -3.33519 23.4903
lfingers 7.12502
lthumb 22.3922 52.2124
rfemur -5.28703 6.91439 28.7773
rtibia 17.1662
rfoot -15.3834 -1.30688
rtoes -9.73696
lfemur -40.9909 -9.53725 -11.5237
ltibia 21.7477
lfoot -11.5878 12.1667
ltoes -9.9597
444
root 0.741959 16.5395 -0.314866 330.236 -93.8308 -317.137
lowerback -15.6272 2.7854 -0.901894
upperback -3.69842 3.64438 -0.052201
thorax 4.75788 1.70881 1.15184
lowerneck 11.3359 -4.83141 -10.1728
upperneck -9.78943 -6.822 12.3568
head -3.96164 -3.78995 5.92711
rclavicle 1.94064e-014 7.95139e-016
rhumerus -17.031 -11.1178 -89.6092
rradius 25.6637
rwrist 11.0363
rhand -16.0958 7.86937
rfingers 7.12502
rthumb 10.1078 -21.8679
lclavicle 1.94064e-014 7.95139e-016
lhumerus -73.6308 43.2649 30.7936
lradius 13.1379
lwrist -67.48
lhand -3.68394 22.8913
lfingers 7.12502
lthumb 22.0574 51.6533
rfemur -4.52055 7.25168 28.7768
rtibia 16.5263
rfoot -15.1845 -1.00684
rtoes -9.64808
lfemur -41.204 -11.3666 -9.85425
ltibia 19.6561
lfoot -11.1758 14.4517
ltoes -10.3857
